<svg xmlns="http://www.w3.org/2000/svg" viewBox="0 0 222.16 221.69"><defs><style>.cls-1{fill:#fff;}.cls-2{fill:#22212b;}</style></defs><g id="Layer_2" data-name="Layer 2"><g id="Layer_1-2" data-name="Layer 1"><path class="cls-1" d="M20.66,8.59c10.86-.82,21.8-.14,32.7-.36q72.5,0,145,0c6.36-.13,12.32,4.24,14.61,10.1,1.32,3.06,1,6.47,1.06,9.73q-.06,85,0,170.06c0,8.25-7.53,15.42-15.69,15.38H24.3c-8.77.23-16.36-7.79-16.14-16.46q0-86,0-172A16.51,16.51,0,0,1,20.66,8.59Zm26,18.77c-10.32,2.16-18.47,12.1-18.11,22.71C28.13,60.6,36.06,70.6,46.31,72.86a23.43,23.43,0,0,0,23.3-7.49,23.82,23.82,0,0,0,5.1-20.29C72.24,32.8,58.82,24.13,46.63,27.36Zm117.12.38A23.44,23.44,0,1,0,182.36,30,23.3,23.3,0,0,0,163.75,27.74Zm-60,60.93A23.41,23.41,0,1,0,132.41,101C127.74,90.4,114.63,84.74,103.74,88.67Zm-57,60c-10.61,2.16-18.89,12.49-18.26,23.37-.21,12.09,10.71,23,22.82,22.77,12.09.77,23.47-9.67,23.78-21.76a23.17,23.17,0,0,0-11.36-21.66C58.74,148.27,52.52,147.64,46.78,148.7Zm118.09.15c-11.33,2.6-19.52,14.61-17.47,26.11,1.43,11.39,12.33,20.68,23.86,19.88,11.73.14,22.14-10.15,22.65-21.77a23.42,23.42,0,0,0-13.73-22.83A24.17,24.17,0,0,0,164.87,148.85Z"/><path class="cls-2" d="M18.78.7A29.15,29.15,0,0,1,24.3.19q80.51,0,161,0C190-.17,194.67.1,199.36.22c9.61,0,18.47,6.92,21.55,15.89,1.59,4.12,1.19,8.6,1.24,12.93q0,84.53-.08,169.06c.23,12.61-11.23,23.8-23.79,23.57q-85,0-170,0c-3.34,0-6.74.16-10-.76A24.46,24.46,0,0,1,1,204.13C-.32,199.88.06,195.41,0,191,.11,135.37.06,79.69.17,24,.16,13.18,8.12,3,18.78.7Zm1.88,7.89A16.51,16.51,0,0,0,8.15,25q0,86,0,172c-.22,8.67,7.37,16.69,16.14,16.46h174c8.16,0,15.73-7.13,15.69-15.38q.09-85,0-170.06c0-3.26.26-6.67-1.06-9.73-2.29-5.86-8.25-10.23-14.61-10.1q-72.51-.06-145,0C42.46,8.45,31.52,7.77,20.66,8.59Z"/><path class="cls-2" d="M46.63,27.36c12.19-3.23,25.61,5.44,28.08,17.72a23.82,23.82,0,0,1-5.1,20.29,23.43,23.43,0,0,1-23.3,7.49C36.06,70.6,28.13,60.6,28.52,50.07,28.16,39.46,36.31,29.52,46.63,27.36Z"/><path class="cls-2" d="M163.75,27.74a23.44,23.44,0,0,1,30.13,24.39,23.4,23.4,0,1,1-30.13-24.39Z"/><path class="cls-2" d="M103.74,88.67c10.89-3.93,24,1.73,28.67,12.3a23.42,23.42,0,1,1-28.67-12.3Z"/><path class="cls-2" d="M46.78,148.7c5.74-1.06,12-.43,17,2.72a23.17,23.17,0,0,1,11.36,21.66c-.31,12.09-11.69,22.53-23.78,21.76-12.11.27-23-10.68-22.82-22.77C27.89,161.19,36.17,150.86,46.78,148.7Z"/><path class="cls-2" d="M164.87,148.85a24.17,24.17,0,0,1,15.31,1.39,23.42,23.42,0,0,1,13.73,22.83C193.4,184.69,183,195,171.26,194.84c-11.53.8-22.43-8.49-23.86-19.88C145.35,163.46,153.54,151.45,164.87,148.85Z"/></g></g></svg>