<svg xmlns="http://www.w3.org/2000/svg" viewBox="0 0 221.74 222.12"><defs><style>.cls-1{fill:#22212b;}</style></defs><g id="Layer_2" data-name="Layer 2"><g id="Layer_1-2" data-name="Layer 1"><path class="cls-1" d="M221,18.73c.84,4.46.42,9,.5,13.56.09,51-.15,102,.18,153-.4,7.14,1.08,14.59-1.57,21.45-3.37,9.06-12.64,15.74-22.41,15.41q-84.52,0-169-.09c-3.67-.06-7.43.28-11-.82A24.11,24.11,0,0,1,.81,204.1c-1-3.52-.78-7.21-.8-10.82q.06-85,0-170C.2,10.92,11.3,0,23.67,0q87,0,174,.11C208.51.07,218.7,8.07,221,18.73Zm-7.85,2c-1.58-7.47-8.92-12.9-16.48-12.62q-86,0-172,0C16,7.83,7.9,15.5,8.18,24.31q0,87,0,174C8.13,206.81,16,214.55,24.61,214q86.57,0,173.13,0c8.28.14,15.85-7.31,15.72-15.61q0-70.08,0-140.15C213.27,45.73,213.89,33.18,213.15,20.72Z"/><path class="cls-1" d="M193.89,44.76A23.35,23.35,0,0,1,188.42,68a22.87,22.87,0,0,1-17.79,7.11c-10.14-.07-19.51-7.83-21.76-17.68a23.42,23.42,0,0,1,11.67-26.27c4.6-2.62,10.09-3.08,15.26-2.38A23.48,23.48,0,0,1,193.89,44.76Z"/><path class="cls-1" d="M194.06,104.63a23.52,23.52,0,0,1-4.11,21,23.29,23.29,0,0,1-35.76,1.21,23.48,23.48,0,0,1-4-25.14c4.22-10,16-16,26.61-13.37A23.55,23.55,0,0,1,194.06,104.63Z"/><path class="cls-1" d="M194,163.78a23.39,23.39,0,1,1-45.81,6.46c0-10.6,8-20.61,18.43-22.62C178.1,144.72,190.88,152.35,194,163.78Z"/><path class="cls-1" d="M73,46.76c1.54,7.67-.64,16.08-6.33,21.57-7.25,7.54-19.77,9-28.62,3.49A23.06,23.06,0,0,1,26.86,51.27c-.14-9.19,6-17.9,14.54-21.21a24.56,24.56,0,0,1,13.34-1.25A23.52,23.52,0,0,1,73,46.76Z"/><path class="cls-1" d="M72.7,104.9c3.41,11.51-3.51,24.7-14.94,28.36-10.4,3.88-23-1.13-28.14-10.94-2.95-5.16-3.39-11.44-2.11-17.15a23.39,23.39,0,0,1,45.19-.27Z"/><path class="cls-1" d="M72.88,164.87a24.14,24.14,0,0,1-2.41,17.21,23.49,23.49,0,0,1-25.89,11.13c-10.24-2.36-18.21-12.32-17.72-22.92-.35-11.19,8.78-21.48,19.78-23C58.2,145.23,70.29,153.47,72.88,164.87Z"/></g></g></svg>