<svg xmlns="http://www.w3.org/2000/svg" viewBox="0 0 222.11 221.65"><defs><style>.cls-1{fill:#fff;}.cls-2{fill:#22212b;}</style></defs><g id="Layer_2" data-name="Layer 2"><g id="Layer_1-2" data-name="Layer 1"><path class="cls-1" d="M22.65,8.33c58.23-.2,116.48,0,174.71-.09,8.58-.58,16.73,6.93,16.6,15.57q.07,86.51,0,173a16.06,16.06,0,0,1-9.41,15.35c-3.8,1.89-8.15,1.32-12.24,1.4q-84.08,0-168.14,0c-8.86.27-16.36-8-16.08-16.72q0-86,0-172C7.92,16.71,14.44,8.94,22.65,8.33ZM45,27.82A23.46,23.46,0,0,0,28.82,45.69C28,51.16,28.52,57,31.48,61.81A23.33,23.33,0,0,0,54.42,73.42c11.26-1,20.87-11.31,20.68-22.67A23,23,0,0,0,63.83,30.13C58.27,26.64,51.2,26.2,45,27.82ZM162.78,149.54a23.39,23.39,0,1,0,28.77,11.82C186.68,150.94,173.58,145.46,162.78,149.54Z"/><path class="cls-2" d="M22.5.24C80.41.06,138.32.2,196.22.1c13.32-1.33,26.29,10.24,25.88,23.72q0,83.49-.06,167c-.11,4.88.52,9.95-1.23,14.63-3.07,9.4-12.52,16.43-22.47,16.21q-87.55,0-175.1,0C10.73,221.61,0,210.16,0,197.79c.05-58,0-116,.15-174C.14,11.72,10.39.78,22.5.24Zm.15,8.09c-8.21.61-14.73,8.38-14.56,16.5q0,86,0,172c-.28,8.69,7.22,17,16.08,16.72q84.06,0,168.14,0c4.09-.08,8.44.49,12.24-1.4A16.06,16.06,0,0,0,214,196.81q0-86.51,0-173c.13-8.64-8-16.15-16.6-15.57C139.13,8.31,80.88,8.13,22.65,8.33Z"/><path class="cls-2" d="M45,27.82c6.24-1.62,13.31-1.18,18.87,2.31A23,23,0,0,1,75.1,50.75c.19,11.36-9.42,21.71-20.68,22.67A23.33,23.33,0,0,1,31.48,61.81C28.52,57,28,51.16,28.82,45.69A23.46,23.46,0,0,1,45,27.82Z"/><path class="cls-2" d="M162.78,149.54c10.8-4.08,23.9,1.4,28.77,11.82a23.41,23.41,0,1,1-28.77-11.82Z"/></g></g></svg>