<svg xmlns="http://www.w3.org/2000/svg" viewBox="0 0 222.12 221.65"><defs><style>.cls-1{fill:#22212b;}</style></defs><g id="Layer_2" data-name="Layer 2"><g id="Layer_1-2" data-name="Layer 1"><path class="cls-1" d="M22.59.21C80.48.05,138.37.18,196.26.08a24.42,24.42,0,0,1,24.51,15.83c1.65,4.1,1.31,8.6,1.34,12.92q-.09,85-.12,170c-.21,12.23-11.34,23.11-23.62,22.77h-166c-6-.16-12.34.81-17.91-2A24.57,24.57,0,0,1,0,197.79q0-87,.12-174C.11,11.67,10.47.72,22.59.21Zm.06,8.09A16.16,16.16,0,0,0,8.76,20.14c-1.09,4.12-.55,8.41-.65,12.62q0,82.05,0,164.1c-.28,8.71,7.26,17,16.12,16.67q84.54,0,169.07,0c3.57,0,7.32.34,10.68-1.14a16.27,16.27,0,0,0,10-15.53q0-86,0-172.08A16.06,16.06,0,0,0,203.93,9.36c-3.36-1.51-7.12-1.09-10.68-1.15C136.38,8.29,79.51,8.12,22.65,8.3Z"/><path class="cls-1" d="M45.76,27.56C51.15,26.47,57,26.63,62,29.14,70.09,33,75.61,41.82,75.09,50.82c.13,11.37-9.5,21.63-20.76,22.58A23.36,23.36,0,0,1,31.44,61.77C28.51,57,28,51.12,28.79,45.65A23.54,23.54,0,0,1,45.76,27.56Z"/><path class="cls-1" d="M105.57,88.17a23.4,23.4,0,0,1,24,8.32c7.21,8.86,6.4,22.85-1.77,30.82a23.4,23.4,0,1,1-22.23-39.14Z"/><path class="cls-1" d="M162.75,149.5c11-4.11,24.32,1.6,29,12.32,4.63,9.58,1.5,22-7,28.33A23.39,23.39,0,0,1,147.6,166.7,23.37,23.37,0,0,1,162.75,149.5Z"/></g></g></svg>