<svg xmlns="http://www.w3.org/2000/svg" viewBox="0 0 222.02 221.65"><defs><style>.cls-1{fill:#22212b;}</style></defs><g id="Layer_2" data-name="Layer 2"><g id="Layer_1-2" data-name="Layer 1"><path class="cls-1" d="M18.62.67A33.11,33.11,0,0,1,25.29.15q79,.08,157.92,0c6.68,0,13.4-.54,20,.4A24.18,24.18,0,0,1,221.07,17c1.18,3.55.91,7.33.94,11Q222,113,222,198c.28,12.59-11.17,23.8-23.7,23.6q-87,0-174.06,0c-10.18.21-19.74-7-22.78-16.65-1.24-3.51-1-7.29-1-11C.35,139,.45,84,0,28.94-.14,22.5.49,15.62,4.46,10.28A24,24,0,0,1,18.62.67Zm2,7.87C13.66,10.12,8.08,16.83,8.48,24q0,87,0,174c-.27,8.36,7.45,15.68,15.71,15.45q86.94,0,173.89,0c8.64.17,16.43-7.79,15.81-16.48q0-86,0-172c.73-8.7-6.95-17-15.71-16.75q-86.5-.08-173,0A24.35,24.35,0,0,0,20.58,8.54Z"/><path class="cls-1" d="M45.59,27.55C59,23.34,74.31,34,75,48c1.35,11.24-6.79,22.5-17.85,24.84A23.42,23.42,0,0,1,31.42,61.74a23.89,23.89,0,0,1-2.7-15.9A23.44,23.44,0,0,1,45.59,27.55Z"/><path class="cls-1" d="M163.67,27.73a23.42,23.42,0,0,1,29,29.66,23.63,23.63,0,0,1-22.49,16.12c-10.61.08-20.58-8-22.64-18.38C144.73,43.63,152.24,30.86,163.67,27.73Z"/><path class="cls-1" d="M46.68,148.65c7.67-1.54,16.1.61,21.58,6.32,7.57,7.22,9,19.72,3.56,28.6a23.22,23.22,0,0,1-21.6,11.21C38.1,194.51,27.68,183.09,28.4,171,28.27,160.47,36.46,150.79,46.68,148.65Z"/><path class="cls-1" d="M164.78,148.8a24.3,24.3,0,0,1,16.65,2.06,23.45,23.45,0,0,1,12.28,23.24c-1.05,11.56-11.83,21.34-23.54,20.71-13.73.51-25.46-13.46-22.84-26.88A23.5,23.5,0,0,1,164.78,148.8Z"/></g></g></svg>