<svg xmlns="http://www.w3.org/2000/svg" viewBox="0 0 222.01 221.57"><defs><style>.cls-1{fill:#22212b;}</style></defs><g id="Layer_2" data-name="Layer 2"><g id="Layer_1-2" data-name="Layer 1"><path class="cls-1" d="M22.47.15C78.37,0,134.28.09,190.19,0c5,.14,10.08-.55,14.89,1a24.13,24.13,0,0,1,16.68,19,89.69,89.69,0,0,1,.24,9.7q0,81-.05,161.93c-.06,4.74.45,9.68-1.39,14.19-3.24,9.16-12.53,15.91-22.31,15.68q-84,0-168.1,0c-4.79-.08-9.79.47-14.34-1.41A24,24,0,0,1,.4,198.79C.2,142.44.59,86.08,0,29.74c0-5.35,0-11,2.38-15.89A24,24,0,0,1,22.47.15Zm.09,8.08c-7.63.61-14.3,7.64-14.08,15.37q0,87.08,0,174.13c-.35,8.41,7.32,16,15.71,15.73q84.48,0,169,0c3.58-.05,7.34.35,10.72-1.14a16.11,16.11,0,0,0,10-15.57q0-86.55,0-173.12C214,15,205.76,7.52,197.18,8.15,139,8.22,80.76,8.05,22.56,8.23Z"/><path class="cls-1" d="M104.56,88.35a23.37,23.37,0,0,1,28.81,29.59c-3.31,11.18-15.9,18.54-27.26,15.72a23.37,23.37,0,0,1-1.55-45.31Z"/></g></g></svg>